<?xml version="1.0" standalone="no"?><!DOCTYPE svg PUBLIC "-//W3C//DTD SVG 1.1//EN" "http://www.w3.org/Graphics/SVG/1.1/DTD/svg11.dtd"><svg t="1761115001156" class="icon" viewBox="0 0 1024 1024" version="1.1" xmlns="http://www.w3.org/2000/svg" p-id="1616" xmlns:xlink="http://www.w3.org/1999/xlink" width="200" height="200"><path d="M627.626667 673.28A66.346667 66.346667 0 0 1 576 700.8c-3.2 0-6.613333 1.28-9.6 0-8.746667-5.76-17.92 2.773333-26.666667 0 0 0-3.413333 1.92-4.266666 3.413333s1.28 4.053333 2.986666 5.333334a24.96 24.96 0 0 1 11.093334 23.253333c-4.266667-6.186667-6.613333-13.866667-14.72-16.426667-2.346667 0-4.906667-2.133333-7.04 0a5.546667 5.546667 0 0 0 0 7.893334 15.146667 15.146667 0 0 1 5.546666 14.08c0 2.346667-1.706667 4.693333-4.266666 4.906666s-2.56-2.56-2.986667-4.693333c-2.773333-13.44-8.96-1.706667-14.293333-2.56 1.92 4.053333 8.533333 2.133333 7.466666 7.253333a8.533333 8.533333 0 0 1-8.533333 6.826667c-23.253333 1.706667-45.013333 12.16-68.693333 12.16-6.613333 0-12.373333 1.706667-13.653334-7.466667 0-2.133333-1.493333-5.973333-4.693333-5.333333s-3.626667 2.773333-4.693333 4.693333-3.84 8.106667-5.973334 12.8a24.746667 24.746667 0 0 1 18.56-34.346666 14.293333 14.293333 0 0 0 10.88-5.76c0-1.706667 2.986667-2.986667 1.92-5.12s-3.2 0-5.12 0a179.2 179.2 0 0 0-97.066666 28.586666 110.933333 110.933333 0 0 1-42.666667 10.24 152.746667 152.746667 0 0 0-67.626667 32.64 250.88 250.88 0 0 1-64 37.546667c-2.346667 0-5.546667 2.773333-7.466666 1.92-14.506667-6.613333-27.946667 2.56-42.666667 2.56-20.053333 0-40.32 4.053333-60.586667 3.626667-5.546667 0-13.866667 0-15.573333-5.973334s5.333333-10.026667 10.453333-12.8a56.32 56.32 0 0 0 21.333334-23.04A225.493333 225.493333 0 0 1 128 740.48c38.826667-31.146667 79.36-59.946667 119.893333-88.746667a262.613333 262.613333 0 0 0 37.333334-36.48c4.48-4.906667 3.626667-10.24-3.413334-13.226666s-11.093333-8.106667-18.133333-10.88-4.266667-21.333333 4.906667-27.52a104.96 104.96 0 0 1 17.493333-9.173334 210.56 210.56 0 0 0 38.826667-21.333333l-21.333334 3.84-11.733333 1.493333c-1.92 0-4.48 0-5.12-2.346666s1.706667-3.2 3.413333-4.266667a252.586667 252.586667 0 0 1 40.746667-24.106667c35.2-15.573333 69.12-34.133333 104.96-48.426666-11.093333-11.093333-21.333333-5.333333-31.146667 0-2.346667 1.28-5.333333 2.773333-7.04 0s1.706667-4.053333 3.413334-5.333334a282.453333 282.453333 0 0 1 50.133333-31.36 87.68 87.68 0 0 0 29.653333-17.066666c2.346667-2.773333 7.466667-5.973333 5.333334-9.6s-6.186667 3.2-12.16 0l32.853333-27.093334c-7.68 0-13.013333 6.826667-21.333333 6.186667 9.173333-5.76 16-14.72 25.6-19.84s24.32-11.946667 36.266666-17.92c2.346667 0 5.973333 0 5.76-4.48s4.053333-5.333333 7.253334-6.613333 6.186667-1.92 9.386666-2.986667a142.933333 142.933333 0 0 0 36.48-22.613333c6.613333-4.48 14.08-8.96 21.333334-13.013334a248.533333 248.533333 0 0 1 44.586666-21.333333c7.04-2.56 10.453333-11.306667 14.293334-18.133333a15.573333 15.573333 0 0 1 10.24-9.386667 16.64 16.64 0 0 0 10.453333-8.32 124.373333 124.373333 0 0 1 34.56-28.586667c4.48-3.413333 10.88 0 16.426667-1.706666s8.32 0 11.093333-2.773334c12.16-14.933333 28.8-12.373333 44.8-11.52a133.546667 133.546667 0 0 1 36.266667 6.4 40.106667 40.106667 0 0 1 27.946666 24.106667 32.213333 32.213333 0 0 0 32 23.893333 97.493333 97.493333 0 0 1 57.813334 17.92 47.146667 47.146667 0 0 1 13.226666 14.293334 5.546667 5.546667 0 0 1 0 7.253333 5.76 5.76 0 0 1-7.253333 1.066667 93.44 93.44 0 0 0-64.213333-3.413334 29.44 29.44 0 0 0-10.24 3.626667c-11.946667 7.893333-11.946667 18.986667 0 25.6a196.906667 196.906667 0 0 1 56.106666 46.293333c3.413333 4.053333 9.6 9.813333 6.186667 14.506667s-10.24 0-15.146667-2.133333c-10.453333-3.84-21.333333-8.533333-30.933333-12.586667s-11.733333-1.706667-11.946667 7.466667c0 13.226667-6.826667 26.24-1.28 39.68-6.613333 7.68-4.48 21.333333-12.8 26.026666s-10.666667 19.2-21.333333 24.96a42.666667 42.666667 0 0 0-18.346667 19.84c0 1.706667-1.28 9.6-7.893333 4.053334-1.92-1.706667-2.133333 1.706667-2.346667 2.773333 0 4.906667 0 10.026667-8.32 9.386667-3.626667 0 0 5.76-4.906666 6.826666-4.266667-2.346667 0-8.533333-5.12-11.306666a97.066667 97.066667 0 0 1-31.786667 38.826666 59.52 59.52 0 0 0-16.213333 27.733334 149.333333 149.333333 0 0 1-29.866667 60.8 134.826667 134.826667 0 0 0-21.333333 50.773333c0 1.28 0 2.56-2.773334 2.56s-1.066667-5.546667-4.053333-7.253333a140.8 140.8 0 0 0-9.813333 49.28c0 11.52 9.813333 16.853333 17.706666 21.333333a265.386667 265.386667 0 0 0 50.773334 21.333333 85.333333 85.333333 0 0 1 21.333333 13.653334 10.026667 10.026667 0 0 0 12.586667 0c4.906667-3.413333 10.453333-4.693333 13.44 2.986666s5.12 3.84 8.746666 2.133334 11.733333-6.186667 17.706667-8.746667a9.6 9.6 0 0 1 13.226667 2.986667c1.706667 2.56 4.693333 5.973333 2.133333 8.746666s-4.906667-1.28-6.826667-3.2-3.413333-2.133333-4.48 0-1.28 5.973333 2.346667 7.253334a24.746667 24.746667 0 0 0 6.826667 0 17.066667 17.066667 0 0 1 14.293333 7.04c-1.066667 1.066667-1.493333 1.92-1.92 1.92a22.613333 22.613333 0 0 0-19.84 5.546666 12.586667 12.586667 0 0 1-8.32 2.773334l-82.56 3.413333h-6.826667c-1.706667 0-7.893333 0-10.026666 1.92-5.76 6.613333-10.24 7.04-13.866667 0s-6.186667-7.253333-8.533333 0-13.226667 1.28-9.386667 11.946667a21.333333 21.333333 0 0 1 23.04-29.44 88.32 88.32 0 0 0 21.333333-1.493334c2.346667 0 5.12 0 5.546667-3.413333s-2.773333-2.133333-4.266667-2.986667a464.64 464.64 0 0 0-80.64-34.773333 31.146667 31.146667 0 0 1-15.786666-15.573333c-5.76-9.813333-9.386667-10.666667-17.706667-2.346667a85.333333 85.333333 0 0 1-20.266667 13.866667c-5.546667 3.2-8.106667 0-8.106666-4.906667a128 128 0 0 1 3.626666-23.466667c2.986667-9.6 4.48-18.773333 6.613334-30.293333z" p-id="1617"></path></svg>